<svg width="351" height="351" viewBox="0 0 351 351" fill="none" xmlns="http://www.w3.org/2000/svg">
<path d="M263.917 85.5282C262.457 81.4776 260.832 77.4552 259.052 73.545C255.507 65.7633 254.693 58.3888 249.712 51.8813" stroke="#CCDDE2" stroke-width="7.24" stroke-miterlimit="10"/>
<path d="M238.168 44.4225C233.882 40.0631 229.873 35.3773 222.59 31.8778C207.199 24.5068 187.518 23.7592 162.397 34.1839" stroke="#CCDDE2" stroke-width="7.24" stroke-miterlimit="10"/>
<path d="M56.7848 330.108C32.4429 295.7 24.57 256.799 28.6381 217.013" stroke="#CCDDE2" stroke-width="7.24" stroke-miterlimit="10"/>
<path d="M277.613 160.719V161.144C277.374 168.866 284.51 200.877 304.749 211.046C324.987 221.214 339.417 265.847 293.787 283.359C248.157 300.87 250.642 330.108 250.642 330.108" stroke="#CCDDE2" stroke-width="7.24" stroke-miterlimit="10"/>
<path d="M162.394 67.2341V29.4173C162.387 26.8193 161.352 24.3295 159.515 22.4924C157.678 20.6553 155.188 19.6204 152.59 19.6139H27.3534C24.7554 19.6204 22.2656 20.6553 20.4285 22.4924C18.5914 24.3295 17.5565 26.8193 17.55 29.4173V207.234C17.5546 209.831 18.5897 212.319 20.4278 214.153C22.2659 215.988 24.7567 217.017 27.3534 217.016H152.59C153.805 217.024 155.01 216.793 156.135 216.335" stroke="black" stroke-width="7.24" stroke-linecap="round" stroke-linejoin="round"/>
<path d="M149.238 25.6055H30.7054C25.8688 25.6055 21.948 29.5263 21.948 34.3629V202.285C21.948 207.121 25.8688 211.042 30.7054 211.042H149.238C154.075 211.042 157.996 207.121 157.996 202.285V34.3629C157.996 29.5263 154.075 25.6055 149.238 25.6055Z" fill="#FF8A00"/>
<path d="M147.094 39.9543H34.3383C31.919 39.9543 29.9578 41.9156 29.9578 44.3348V70.2948C29.9578 72.7141 31.919 74.6753 34.3383 74.6753H147.094C149.513 74.6753 151.474 72.7141 151.474 70.2948V44.3348C151.474 41.9156 149.513 39.9543 147.094 39.9543Z" fill="#FF8A00"/>
<path d="M89.9718 54.577C91.9549 54.577 93.5625 52.9693 93.5625 50.9862C93.5625 49.0031 91.9549 47.3955 89.9718 47.3955C87.9887 47.3955 86.3811 49.0031 86.3811 50.9862C86.3811 52.9693 87.9887 54.577 89.9718 54.577Z" fill="#FF8A00"/>
<path d="M79.9368 67.2341C79.9368 64.5726 80.994 62.0201 82.876 60.1382C84.7579 58.2562 87.3104 57.199 89.9719 57.199C92.6333 57.199 95.1858 58.2562 97.0677 60.1382C98.9497 62.0201 100.007 64.5726 100.007 67.2341H79.9368Z" fill="#D7E8F0"/>
<path d="M90.7019 111.878C86.8738 111.876 83.1311 113.009 79.9473 115.135C76.7635 117.26 74.2817 120.282 72.8158 123.818C71.3499 127.355 70.9658 131.246 71.7121 135.001C72.4584 138.756 74.3016 142.204 77.0084 144.911C79.7153 147.618 83.1642 149.461 86.9189 150.208C90.6735 150.954 94.5651 150.57 98.1014 149.104C101.638 147.638 104.66 145.156 106.785 141.972C108.911 138.789 110.044 135.046 110.042 131.218C110.039 126.089 108.001 121.172 104.374 117.545C100.748 113.919 95.8304 111.881 90.7019 111.878V111.878ZM90.7019 145.893C89.953 145.893 89.2348 145.596 88.7052 145.066C88.1756 144.537 87.8781 143.818 87.8781 143.069C87.8781 142.32 88.1756 141.602 88.7052 141.073C89.2348 140.543 89.953 140.246 90.7019 140.246C91.4508 140.246 92.1691 140.543 92.6986 141.073C93.2282 141.602 93.5257 142.32 93.5257 143.069C93.5257 143.818 93.2282 144.537 92.6986 145.066C92.1691 145.596 91.4508 145.893 90.7019 145.893ZM94.2856 124.131C93.6784 128.322 93.1659 132.741 91.9339 136.816C91.6321 137.785 89.7928 137.785 89.4769 136.816C88.594 133.749 87.9162 130.626 87.4482 127.469C87.0691 125.174 85.7247 121.46 87.0129 119.221C88.1326 117.231 91.3162 116.985 93.1554 118.027C95.4404 119.34 94.5489 122.06 94.2856 124.145V124.131Z" fill="#D7E8F0"/>
<path d="M42.1094 90.1754H136.595" stroke="white" stroke-width="7.24" stroke-miterlimit="10"/>
<path d="M42.1094 99.4734H136.595" stroke="white" stroke-width="7.24" stroke-miterlimit="10"/>
<path d="M42.1094 159.365H136.595" stroke="white" stroke-width="7.24" stroke-miterlimit="10"/>
<path d="M64.0575 168.161H114.647" stroke="white" stroke-width="7.24" stroke-miterlimit="10"/>
<path d="M52.1481 225.763C52.1481 225.763 68.961 158.954 121.327 142.636L142.611 137.557C142.611 137.557 145.977 122.524 144.738 120.944C143.499 119.365 140.955 116.128 136.293 116.83C131.632 117.532 119.582 117.757 116.497 103.025C113.412 88.294 124.812 53.2783 154.44 48.0414C184.068 42.8044 184.759 64.5594 184.759 64.5594L162.997 114.988L166.374 155.668L166.799 216.269L52.1481 225.763Z" fill="white"/>
<path d="M250.726 24.3524C245.459 22.7821 239.844 22.8091 234.591 24.43C229.339 26.0509 224.685 29.1929 221.218 33.4587C217.752 37.7244 215.628 42.9224 215.116 48.3953C214.603 53.8681 215.725 59.37 218.339 64.2052C220.954 69.0404 224.943 72.9918 229.804 75.5596C234.664 78.1274 240.176 79.1963 245.644 78.6313C251.111 78.0662 256.289 75.8924 260.521 72.3849C264.753 68.8774 267.85 64.1936 269.421 58.9259C271.526 51.8622 270.74 44.2512 267.234 37.7675C263.728 31.2837 257.79 26.4581 250.726 24.3524ZM236.764 71.1898C236.252 71.0373 235.776 70.7855 235.362 70.4489C234.948 70.1124 234.605 69.6975 234.351 69.2282C234.098 68.7589 233.939 68.2442 233.884 67.7135C233.83 67.1829 233.88 66.6466 234.033 66.1354C234.185 65.6243 234.437 65.1481 234.774 64.7342C235.11 64.3204 235.525 63.9768 235.994 63.7233C236.942 63.2111 238.055 63.0965 239.087 63.4047C240.12 63.7128 240.987 64.4184 241.499 65.3663C242.011 66.3142 242.126 67.4267 241.818 68.4591C241.51 69.4914 240.804 70.3591 239.856 70.8713C238.908 71.3834 237.796 71.498 236.764 71.1898V71.1898ZM250.804 42.7799C250.745 42.9203 250.689 43.0572 250.635 43.1906C248.357 48.7933 245.525 54.154 242.179 59.1927C241.369 60.4212 238.827 59.663 238.82 58.1888C238.868 53.6075 239.22 49.0344 239.873 44.4998C240.281 41.1864 239.965 35.5142 242.643 32.9659C245.019 30.6844 249.501 31.6637 251.614 33.854C253.949 36.2864 251.927 40.1088 250.793 42.7799H250.804Z" fill="#D7E8F0"/>
<path d="M233.106 174.152C232.755 174.254 228.276 175.556 226.514 178.659C226.179 177.949 225.648 177.349 224.984 176.928C224.321 176.508 223.551 176.286 222.766 176.286H170.168C169.232 176.285 168.324 176.601 167.591 177.183C166.859 177.765 166.345 178.579 166.135 179.491L155.777 223.903C155.075 223.766 154.373 223.682 153.643 223.612L129.2 217.511C128.151 217.248 127.042 217.385 126.089 217.896C125.136 218.407 124.408 219.255 124.047 220.274C123.884 220.731 123.803 221.213 123.808 221.699C123.808 222.801 124.226 223.863 124.978 224.669C125.73 225.475 126.759 225.967 127.859 226.044L139.417 226.788C128.283 232.029 114.738 242.011 103.433 251.183C92.4323 233.959 102.755 216.739 110.519 207.466C109.519 197.244 104.451 173.513 79.161 174.159C87.8728 162.987 98.7363 153.412 112.197 147.002C158.304 198.108 211.053 156.325 212.172 155.426C220.061 160.572 227.119 166.889 233.106 174.159" fill="#2E2E2E"/>
<path d="M228.315 320.758V329.589H76.0477V317.079C81.9796 317.43 88.2204 316.026 93.896 313.468C101.081 310.196 107.287 305.114 112.594 299.315C118.052 293.313 121.049 284.991 124.528 277.753C129.751 266.855 136.669 259.091 147.648 255.802L146.946 258.82C146.805 259.428 146.803 260.06 146.94 260.668C147.077 261.277 147.349 261.847 147.737 262.335C148.124 262.824 148.617 263.219 149.179 263.491C149.74 263.763 150.355 263.905 150.979 263.906H203.84C202.787 273.032 198.347 322.874 228.315 320.768" fill="#2E2E2E"/>
<path d="M203.864 88.4977C203.822 93.2194 203.206 97.9185 202.032 102.492C201.496 104.66 200.346 106.628 198.72 108.159C197.094 109.69 195.061 110.719 192.864 111.123C192.776 107.936 191.421 105.139 189.354 103.401C189.543 100.703 189.516 97.994 189.273 95.3001C189.136 93.5205 188.922 91.8602 188.698 90.3685C188.564 89.5194 188.37 88.6807 188.118 87.8588C187.413 87.1007 186.582 86.4702 185.661 85.995C182.408 84.1628 175.711 82.2148 163.303 85.0789C161.277 85.5426 159.371 86.4263 157.708 87.6728C157.671 87.6957 157.638 87.7241 157.61 87.7571C156.49 88.789 155.065 90.0947 153.591 90.7721C152.064 91.4741 150.47 91.5022 149.133 89.842C149.098 89.8069 149.08 89.7753 149.049 89.7402C148.347 88.8241 147.676 87.6342 146.437 87.399C143.826 86.9076 142.555 89.505 142.225 91.6883C141.937 93.7065 142.531 95.4861 143.398 97.1814C144.124 98.5597 145.072 99.8085 146.206 100.877C146.496 101.159 146.763 101.464 147.002 101.79C146.893 101.809 146.786 101.839 146.683 101.878C146.443 101.958 146.208 102.055 145.981 102.166C142.822 103.587 140.572 107.15 140.523 111.32C140.523 111.45 135.226 111.372 134.556 111.32C131.972 111.081 129.428 110.337 127.61 108.389C122.45 102.861 122.474 94.6577 124.594 88.2414C126.602 82.1516 129.157 76.2056 132.506 70.7265C139.761 58.8697 151.018 50.1228 165.268 49.3366C168.686 49.1647 172.112 49.3648 175.486 49.9333C177.082 50.1849 178.662 50.5366 180.214 50.9863C194.742 57.3253 203.963 71.6953 203.878 88.4977" fill="#2E2E2E"/>
<path d="M195.451 223.668C193.734 228.073 189.649 230.593 186.325 229.284C183.001 227.975 181.695 223.369 183.408 218.964C185.121 214.559 189.21 212.036 192.534 213.348C195.858 214.661 197.167 219.266 195.451 223.671" fill="#3FBDF1"/>
<path d="M204.282 263.008C204.282 263.008 194.959 327.995 232.25 320.793C269.336 313.622 283.373 162.745 176.023 141.046" stroke="black" stroke-width="7.24" stroke-miterlimit="10"/>
<path d="M116.974 200.442C116.974 200.442 86.8865 225.816 103.099 251.193" stroke="black" stroke-width="7.24" stroke-miterlimit="10"/>
<path d="M204.959 244.956C204.443 244.987 203.706 244.643 203.204 244.507C202.568 244.338 201.937 244.158 201.313 243.966C197.647 242.825 194.198 241.079 191.109 238.799C190.407 238.297 189.157 237.975 188.301 238.304C187.824 238.479 187.403 238.779 187.082 239.172C186.761 239.566 186.552 240.038 186.476 240.54C186.213 242.351 187.49 244.124 188.884 245.286C190.537 246.669 192.253 247.943 194.257 248.771C196.192 249.548 198.188 250.162 200.224 250.607C201.148 250.821 202.085 250.958 203.001 251.193" stroke="black" stroke-width="7.24" stroke-miterlimit="10"/>
<path d="M216.507 227.374C216.886 229.375 217.164 231.453 216.974 233.485C216.816 235.205 216.198 237.213 214.286 237.631C213.922 237.727 213.544 237.761 213.169 237.732C205.967 237.308 200.031 234.819 193.254 229.919C186.476 225.019 184.089 236.304 190.281 238.304" stroke="black" stroke-width="7.24" stroke-miterlimit="10"/>
<path d="M190.54 246.648C190.374 246.511 190.216 246.364 190.066 246.209C186.693 242.681 186.083 249.768 189.624 251.853L190.081 252.123C190.319 252.225 190.575 252.344 190.828 252.474C190.947 252.506 191.081 252.559 191.204 252.594C194.405 253.998 197.813 254.896 201.169 255.812C197.848 254.728 194.538 253.661 191.204 252.594C190.916 252.474 190.642 252.355 190.354 252.218C190.266 252.181 190.174 252.153 190.081 252.134C190.021 252.107 189.955 252.096 189.89 252.102C189.825 252.108 189.762 252.131 189.708 252.169C189.628 252.235 189.57 252.323 189.54 252.422C188.996 253.727 189.438 255.374 190.133 256.542C190.863 257.778 192.116 258.729 193.352 259.407C196.676 261.27 200.54 262.373 204.271 263.032C204.964 263.176 205.673 263.222 206.377 263.169" stroke="black" stroke-width="7.24" stroke-miterlimit="10"/>
<path d="M236.476 271.211C236.476 271.211 225.037 251.716 223.762 234.766C222.983 224.275 219.901 222.053 217.697 221.902" stroke="black" stroke-width="7.24" stroke-miterlimit="10"/>
<path d="M214.286 237.627L216.511 227.374L217.697 221.899L226.493 181.302C226.624 180.698 226.617 180.071 226.474 179.47C226.331 178.868 226.055 178.306 225.667 177.825C225.279 177.343 224.788 176.955 224.23 176.688C223.672 176.422 223.061 176.283 222.443 176.283H169.842C168.906 176.282 167.998 176.598 167.265 177.18C166.533 177.762 166.019 178.576 165.809 179.487L155.451 223.903L147.89 256.311L147.188 259.347C147.049 259.955 147.048 260.586 147.185 261.194C147.323 261.802 147.596 262.371 147.984 262.86C148.371 263.348 148.864 263.742 149.425 264.014C149.986 264.286 150.601 264.428 151.225 264.429H204.082" stroke="black" stroke-width="7.24" stroke-miterlimit="10"/>
<path d="M149.07 88.6732C149.07 88.6732 151.853 76.869 167.571 75.3036C183.289 73.7381 187.227 85.4826 187.227 85.4826L186.732 86.6654C186.732 86.6654 166.069 78.3748 154.658 90.207C154.658 90.207 150.547 92.0708 149.07 88.6802" fill="#3FBDF1"/>
<path d="M153.31 223.612L128.863 217.504C128.28 217.36 127.673 217.338 127.081 217.441C126.489 217.544 125.925 217.768 125.425 218.101C124.924 218.433 124.498 218.866 124.174 219.372C123.85 219.878 123.635 220.446 123.542 221.039C123.449 221.633 123.481 222.239 123.635 222.82C123.789 223.4 124.062 223.942 124.437 224.412C124.812 224.881 125.281 225.267 125.813 225.546C126.345 225.825 126.929 225.989 127.529 226.03L139.087 226.792" stroke="black" stroke-width="7.24" stroke-miterlimit="10"/>
<path d="M211.857 155.409C211.857 155.409 158.459 198.666 111.867 147.002" stroke="black" stroke-width="7.24" stroke-miterlimit="10"/>
<path d="M110.193 207.459C109.193 197.237 104.128 173.489 78.8171 174.152" stroke="black" stroke-width="7.24" stroke-miterlimit="10"/>
<path d="M232.787 174.145C232.787 174.145 228.017 175.458 226.188 178.666" stroke="black" stroke-width="7.24" stroke-miterlimit="10"/>
<path d="M39.0031 330.116H265.718" stroke="black" stroke-width="7.24" stroke-miterlimit="10"/>
<path d="M189.354 103.415C191.491 105.212 192.864 108.147 192.864 111.467C192.864 116.978 189.035 121.435 184.303 121.435C183.768 121.433 183.234 121.37 182.713 121.249C188.224 117.037 189.34 103.415 189.34 103.415" fill="#3FBDF1"/>
<path d="M158.182 125.658C160.838 126.98 163.745 127.723 166.71 127.837C169.675 127.951 172.63 127.435 175.381 126.321C190.888 119.845 190.295 100.758 188.683 90.3825C188.555 89.5408 188.372 88.7084 188.136 87.8904V87.8729C186.356 81.941 181.713 77.1077 175.595 75.7353C163.745 73.0572 152.91 79.7753 148.413 88.8206" stroke="black" stroke-width="7.24" stroke-miterlimit="10"/>
<path d="M188.283 88.0765C188.283 88.0765 188.234 88.0063 188.132 87.8904V87.8729C187.079 86.6865 180.983 81.0249 163.334 85.093C161.309 85.5559 159.404 86.4397 157.743 87.6868C157.704 87.7094 157.668 87.7378 157.638 87.7711" stroke="black" stroke-width="7.24" stroke-miterlimit="10"/>
<path d="M141.242 116.83H132.513C126.213 116.83 121.218 111.06 119.045 105.644C115.991 98.0273 117.947 90.2316 120.695 82.829C122.997 76.6339 125.925 70.6142 129.775 65.2264C138.396 53.1695 151.411 46.3391 166.37 47.6027C167.697 47.715 169.018 47.8788 170.333 48.0941C190.421 51.3513 203.966 68.1467 203.864 88.4871C203.822 93.2124 203.207 97.915 202.032 102.492C201.492 104.659 200.34 106.624 198.714 108.155C197.088 109.685 195.056 110.715 192.86 111.123" stroke="black" stroke-width="7.24" stroke-miterlimit="10"/>
<path d="M147.009 101.79C146.769 101.464 146.502 101.157 146.213 100.874C145.079 99.807 144.13 98.5592 143.405 97.1814C142.538 95.486 141.944 93.7065 142.232 91.6882C142.555 89.519 143.826 86.9076 146.444 87.399C147.683 87.6377 148.343 88.8241 149.056 89.7402C151.765 93.2502 155.497 89.7226 157.785 87.6026" stroke="black" stroke-width="7.24" stroke-miterlimit="10"/>
<path d="M189.354 103.415C191.491 105.212 192.864 108.147 192.864 111.467C192.864 116.978 189.035 121.435 184.303 121.435C183.768 121.433 183.234 121.37 182.713 121.249" stroke="black" stroke-width="7.24" stroke-miterlimit="10"/>
<path d="M171.035 110.179C172.952 111.467 177.581 112.524 176.651 108.705C175.535 104.18 174.033 94.5138 183.233 93.7767C183.233 93.7767 187.283 93.9487 189.284 95.3246" stroke="black" stroke-width="7.24" stroke-miterlimit="10"/>
<path d="M174.5 117.743C174.5 117.743 169.866 120.2 167.571 115.304" stroke="black" stroke-width="7.24" stroke-miterlimit="10"/>
<path d="M165.103 100.386C164.924 101.941 165.532 103.285 166.462 103.394C167.392 103.503 168.29 102.341 168.473 100.776C168.655 99.2102 168.041 97.8799 167.115 97.7711C166.188 97.6623 165.282 98.8241 165.103 100.386Z" fill="black"/>
<path d="M180.189 101.302C180.01 102.854 180.618 104.201 181.548 104.31C182.478 104.419 183.376 103.257 183.555 101.692C183.734 100.126 183.127 98.7925 182.201 98.6872C181.274 98.5819 180.368 99.7402 180.189 101.302Z" fill="black"/>
<path d="M171.035 94.77C171.035 94.77 168.199 90.3965 161.772 94.5454" stroke="black" stroke-width="7.24" stroke-miterlimit="10"/>
<path d="M176.019 126.034V150.295" stroke="black" stroke-width="7.24" stroke-miterlimit="10"/>
<path d="M80.1052 271.211C80.1052 271.211 90.1052 261.734 103.092 251.204C114.398 242.032 127.957 232.032 139.094 226.795C140.519 226.132 141.902 225.539 143.247 225.04C146.454 223.818 149.897 223.338 153.317 223.636C154.033 223.695 154.745 223.791 155.451 223.924" stroke="black" stroke-width="7.24" stroke-miterlimit="10"/>
<path d="M147.89 256.311C136.908 259.6 129.989 267.364 124.77 278.262C121.299 285.5 118.294 293.822 112.836 299.824C107.532 305.619 101.327 310.705 94.1417 313.977C81.1055 319.908 65.0543 319.452 56.5847 306.553C50.8564 297.806 48.6029 286.939 47.4587 276.718C45.4931 258.954 51.6988 208.88 78.817 174.149C87.5288 162.976 98.3958 153.401 111.853 146.992C121.299 142.506 131.976 139.572 144.078 138.74L147.469 121.249" stroke="black" stroke-width="7.24" stroke-miterlimit="10"/>
<path d="M228.557 321.348V330.116" stroke="black" stroke-width="7.24" stroke-miterlimit="10"/>
<path d="M76.2899 318.217V330.116" stroke="black" stroke-width="7.24" stroke-miterlimit="10"/>
<path d="M157.62 111.467C157.654 114.098 156.719 116.65 154.995 118.638C154.028 119.085 152.975 119.316 151.909 119.315C147.181 119.315 143.348 114.858 143.348 109.347C143.314 106.716 144.25 104.165 145.977 102.18C146.944 101.73 147.997 101.498 149.063 101.499C153.791 101.499 157.62 105.96 157.62 111.467Z" fill="#3FBDF1"/>
<path d="M149.07 121.436C153.792 121.436 157.62 116.973 157.62 111.467C157.62 105.962 153.792 101.499 149.07 101.499C144.347 101.499 140.519 105.962 140.519 111.467C140.519 116.973 144.347 121.436 149.07 121.436Z" stroke="black" stroke-width="7.24" stroke-miterlimit="10"/>
<path d="M269.954 183.713C268.026 185.674 266.722 188.163 266.208 190.864C265.694 193.566 265.993 196.359 267.067 198.891C268.141 201.423 269.941 203.579 272.241 205.088C274.54 206.596 277.236 207.389 279.986 207.365C282.736 207.341 285.417 206.503 287.69 204.955C289.963 203.408 291.727 201.221 292.757 198.671C293.787 196.121 294.038 193.323 293.478 190.631C292.918 187.938 291.572 185.472 289.61 183.545C286.981 180.962 283.433 179.528 279.747 179.56C276.061 179.591 272.539 181.085 269.954 183.713V183.713ZM287.392 200.853C287.014 201.237 286.499 201.456 285.96 201.46C285.42 201.465 284.902 201.255 284.517 200.877C284.133 200.499 283.914 199.984 283.909 199.445C283.905 198.906 284.115 198.387 284.493 198.003C284.68 197.812 284.902 197.661 285.148 197.556C285.394 197.452 285.658 197.397 285.925 197.395C286.192 197.393 286.457 197.443 286.704 197.543C286.952 197.643 287.177 197.791 287.367 197.978C287.558 198.165 287.709 198.388 287.814 198.634C287.918 198.879 287.973 199.143 287.975 199.41C287.977 199.677 287.927 199.942 287.827 200.189C287.727 200.437 287.579 200.662 287.392 200.853ZM278.041 188.059C279.891 190.481 281.902 192.973 283.355 195.654C283.706 196.3 282.776 197.248 282.123 196.904C280.107 195.812 278.166 194.585 276.314 193.232C274.945 192.278 272.362 191.088 271.864 189.308C271.411 187.722 272.892 185.97 274.356 185.549C276.153 185.037 277.107 186.872 278.041 188.059Z" fill="#DEF2F9"/>
<path d="M324.464 72.3586C325.849 70.6548 326.698 68.5786 326.903 66.3925C327.108 64.2063 326.66 62.0085 325.616 60.077C324.572 58.1454 322.979 56.5667 321.037 55.5407C319.096 54.5146 316.894 54.0872 314.71 54.3125C312.526 54.5378 310.458 55.4056 308.767 56.8063C307.076 58.207 305.838 60.0777 305.211 62.1817C304.583 64.2857 304.593 66.5287 305.24 68.6269C305.887 70.7252 307.141 72.5845 308.845 73.9697C309.976 74.8897 311.278 75.5778 312.675 75.9947C314.072 76.4116 315.538 76.5492 316.988 76.3996C318.439 76.2499 319.846 75.8161 321.128 75.1227C322.411 74.4294 323.545 73.4901 324.464 72.3586ZM309.312 60.0421C309.446 59.8766 309.612 59.7392 309.799 59.6377C309.987 59.5363 310.192 59.4727 310.404 59.4507C310.616 59.4287 310.831 59.4487 311.035 59.5095C311.239 59.5703 311.43 59.6708 311.595 59.8051C311.76 59.9395 311.898 60.1051 311.999 60.2926C312.101 60.4801 312.164 60.6857 312.186 60.8977C312.208 61.1097 312.188 61.324 312.128 61.5283C312.067 61.7326 311.966 61.9229 311.832 62.0884C311.561 62.4226 311.168 62.6353 310.739 62.6797C310.311 62.7242 309.883 62.5967 309.549 62.3253C309.214 62.0539 309.002 61.6609 308.957 61.2328C308.913 60.8046 309.04 60.3762 309.312 60.0421V60.0421ZM317.711 69.5191C316.058 67.7325 314.278 65.9143 312.913 63.8785C312.583 63.3906 313.264 62.5693 313.798 62.7939C315.488 63.5145 317.128 64.3471 318.708 65.286C319.866 65.9424 322.011 66.69 322.541 68.0729C323.018 69.2979 321.972 70.8037 320.839 71.2319C319.438 71.7725 318.54 70.386 317.711 69.498V69.5191Z" fill="#DEF2F9"/>
<path d="M214.11 145.556C218.027 152.225 217.848 156.974 216.83 164.672C216.423 167.602 219.579 169.586 222.137 168.111C244.745 155.124 265.847 165.395 292.804 159.028C302.702 156.704 315.044 151.888 323.503 144.145C326.31 139.977 327.809 135.067 327.809 130.042C327.809 108.982 299.027 91.8848 263.531 91.8848C240.783 91.8848 220.797 98.9048 209.372 109.48C209.372 109.48 209.372 109.48 209.34 109.512C206.441 113.854 204.847 118.599 204.847 123.552C204.83 131.109 210.449 139.301 214.11 145.556Z" fill="#FF8A00"/>
<path d="M204.931 123.552C204.931 123.727 204.931 123.903 204.931 124.085C205.058 131.456 208.757 138.326 213.138 144.268C216.072 148.241 219.554 152.657 218.729 157.529C218.378 159.677 217.167 161.625 216.865 163.78C216.563 165.935 217.711 168.624 219.887 168.736C221.27 168.806 222.446 167.824 223.541 166.981C230.017 161.962 238.434 160.084 246.62 159.754C254.805 159.424 262.98 160.505 271.169 160.737C282.976 161.088 294.97 159.6 305.875 155.072C315.647 151.021 324.601 144.373 330.481 135.493C336.258 126.774 332.843 114.114 326.679 106.532C320.902 99.4172 312.53 94.8648 303.945 91.6566C280.853 83.0361 254.496 83.2326 231.723 92.678C224.963 95.486 218.424 99.1364 213.355 104.419C208.417 109.565 204.984 116.423 204.931 123.552Z" stroke="black" stroke-width="7.24" stroke-miterlimit="10"/>
<path d="M299.68 131.941C304.577 131.941 308.547 127.971 308.547 123.075C308.547 118.178 304.577 114.208 299.68 114.208C294.784 114.208 290.814 118.178 290.814 123.075C290.814 127.971 294.784 131.941 299.68 131.941Z" fill="white"/>
<path d="M271.004 131.941C275.9 131.941 279.87 127.971 279.87 123.075C279.87 118.178 275.9 114.208 271.004 114.208C266.107 114.208 262.137 118.178 262.137 123.075C262.137 127.971 266.107 131.941 271.004 131.941Z" fill="white"/>
<path d="M241.769 131.941C246.665 131.941 250.635 127.971 250.635 123.075C250.635 118.178 246.665 114.208 241.769 114.208C236.872 114.208 232.903 118.178 232.903 123.075C232.903 127.971 236.872 131.941 241.769 131.941Z" fill="white"/>
</svg>
